<?xml version="1.0" encoding="UTF-8"?>
<svg id="Layer_1" data-name="Layer 1" xmlns="http://www.w3.org/2000/svg" viewBox="0 0 444.19 288.52">
  <defs>
    <style>
      .cls-1 {
        fill: #1b1b51;
      }

      .cls-2 {
        fill: #ee398f;
      }
    </style>
  </defs>
  <g>
    <g>
      <path class="cls-1" d="M104.37,245.4l-4.49-13.64h-18.62l-4.48,13.64h-9.94l18.69-53.22h10.1l18.69,53.22h-9.94ZM90.69,201.4h-.15c-.8,3.5-1.55,6.25-2.24,8.25l-4.71,14.24h13.91l-4.71-14.24-2.09-8.25Z"/>
      <path class="cls-1" d="M116.86,226.29c0-5.59,1.91-10.33,5.72-14.2,3.82-3.87,8.81-5.81,14.99-5.81,2.94,0,5.63.48,8.07,1.42,2.44.95,4.14,1.9,5.08,2.85l1.5,1.43-4.19,6.52c-.3-.3-.72-.67-1.27-1.12-.55-.45-1.68-1.06-3.4-1.84-1.72-.77-3.48-1.16-5.27-1.16-3.44,0-6.23,1.14-8.38,3.41-2.14,2.27-3.21,5.09-3.21,8.43s1.1,6.18,3.29,8.51c2.19,2.32,5.06,3.49,8.6,3.49,1.9,0,3.78-.4,5.65-1.2,1.87-.8,3.25-1.6,4.15-2.4l1.42-1.27,3.67,6.75c-.15.15-.36.37-.64.68-.28.3-.91.8-1.91,1.5-1,.7-2.05,1.32-3.18,1.87-1.12.55-2.59,1.05-4.41,1.5-1.82.45-3.68.68-5.57.68-6.18,0-11.18-1.91-14.99-5.73-3.81-3.82-5.72-8.58-5.72-14.28Z"/>
      <path class="cls-1" d="M157.16,234.39c0-1.95.4-3.67,1.2-5.17.79-1.5,1.91-2.7,3.33-3.6,1.42-.9,2.89-1.65,4.41-2.25,1.52-.6,3.22-1.04,5.08-1.31,1.87-.27,3.43-.45,4.67-.53,1.25-.08,2.54-.11,3.89-.11h1.27v-.53c0-4.5-2.44-6.75-7.33-6.75-1.6,0-3.27.31-5.01.94-1.75.63-3.09,1.24-4.04,1.84l-1.42.9-3.59-6.82c.45-.35,1.08-.79,1.91-1.31.82-.52,2.53-1.22,5.12-2.1,2.59-.87,5.23-1.31,7.93-1.31,5.03,0,8.94,1.32,11.7,3.97,2.77,2.65,4.15,6.4,4.15,11.24v23.91h-8.75v-3.15l.15-2.7h-.15c.05,0-.05.24-.3.71-.25.48-.67,1.04-1.27,1.69-.6.65-1.32,1.3-2.17,1.95-.85.65-1.97,1.21-3.36,1.69-1.4.48-2.89.71-4.49.71-3.59,0-6.64-1.07-9.16-3.22-2.52-2.15-3.78-5.05-3.78-8.69ZM166.73,233.94c0,1.35.5,2.51,1.5,3.48,1,.98,2.42,1.46,4.26,1.46,2.39,0,4.42-1.06,6.09-3.19,1.67-2.12,2.51-4.41,2.51-6.86v-.9h-1.65c-8.47,0-12.71,2-12.71,6Z"/>
      <path class="cls-1" d="M197.69,226.29c0-6,1.61-10.83,4.82-14.5,3.22-3.67,7.37-5.51,12.45-5.51,1.54,0,2.99.16,4.34.49,1.35.33,2.4.73,3.18,1.2.77.48,1.43.96,1.98,1.46.55.5.92.9,1.12,1.2l.37.52h.15c-.05-.65-.08-1.37-.08-2.17v-16.79h9.5v53.22h-8.97v-3.15l.15-2.47h-.15c-.1.2-.24.44-.41.71s-.6.79-1.27,1.54c-.67.75-1.43,1.41-2.28,1.99s-1.98,1.1-3.4,1.57c-1.42.48-2.95.71-4.6.71-5.14,0-9.23-1.85-12.3-5.55-3.07-3.7-4.6-8.52-4.6-14.47ZM207.26,226.29c0,3.6.87,6.5,2.62,8.7,1.74,2.2,4.04,3.3,6.88,3.3,2.69,0,4.96-1.01,6.8-3.04,1.84-2.02,2.76-5.03,2.76-9.03,0-3.2-.83-5.96-2.5-8.28-1.67-2.32-4-3.48-6.99-3.48-2.74,0-5.02,1.06-6.84,3.19-1.82,2.12-2.73,5.01-2.73,8.66Z"/>
      <path class="cls-1" d="M243.3,226.29c0-5.9,1.81-10.7,5.42-14.43,3.61-3.72,8.26-5.58,13.94-5.58,5.33,0,9.48,1.71,12.45,5.13,2.96,3.43,4.45,7.76,4.45,13.01l-.23,3.67h-26.32c.3,3.2,1.53,5.69,3.7,7.46,2.17,1.77,4.75,2.66,7.74,2.66,1.8,0,3.61-.35,5.46-1.05,1.85-.7,3.24-1.4,4.19-2.1l1.35-1.05,3.67,6.82c-.15.15-.37.35-.67.6-.3.25-.96.69-1.98,1.31-1.02.63-2.08,1.17-3.18,1.65-1.1.48-2.5.91-4.22,1.31-1.72.4-3.48.6-5.27.6-6.13,0-11.08-1.94-14.84-5.81-3.76-3.87-5.64-8.61-5.64-14.21ZM253.32,221.57h16.67c-.05-2.5-.79-4.45-2.2-5.85-1.42-1.4-3.21-2.1-5.35-2.1-2.44,0-4.46.7-6.06,2.1-1.6,1.4-2.62,3.35-3.07,5.85Z"/>
      <path class="cls-1" d="M287.41,245.4v-38.23h9.12v4.42l-.15,2.62h.15c1.05-2.1,2.68-3.95,4.9-5.55,2.22-1.6,4.72-2.4,7.51-2.4,5.83,0,9.54,2.62,11.14,7.87h.15c1.1-2.2,2.83-4.06,5.2-5.59,2.37-1.52,4.97-2.29,7.81-2.29,8.33,0,12.49,4.85,12.49,14.54v24.59h-9.5v-22.79c0-2.5-.36-4.4-1.08-5.7s-2.1-1.95-4.15-1.95c-2.34,0-4.31.81-5.91,2.43-1.59,1.63-2.69,3.71-3.29,6.26-.3,1.2-.45,2.85-.45,4.95v16.79h-9.5v-22.79c0-2.45-.35-4.33-1.05-5.66-.7-1.32-2.07-1.98-4.11-1.98-2.34,0-4.33.81-5.95,2.43-1.62,1.63-2.75,3.74-3.4,6.33-.3,1.15-.45,2.77-.45,4.87v16.79h-9.5Z"/>
    </g>
    <path class="cls-1" d="M373.52,247.79l-1.31,3.38-1.28,3.33-.94,2.35h-8.9l.94-2.36,3.91-9.67-16.1-37.65h10.7l7.99,22.06,1.43,5.15h.14c.4-1.97.83-3.66,1.28-5.01l7.48-22.2h10.39l-15.73,40.63Z"/>
  </g>
  <g>
    <g>
      <path class="cls-1" d="M104.37,245.4l-4.49-13.64h-18.62l-4.48,13.64h-9.94l18.69-53.22h10.1l18.69,53.22h-9.94ZM90.69,201.4h-.15c-.8,3.5-1.55,6.25-2.24,8.25l-4.71,14.24h13.91l-4.71-14.24-2.09-8.25Z"/>
      <path class="cls-1" d="M116.86,226.29c0-5.59,1.91-10.33,5.72-14.2,3.82-3.87,8.81-5.81,14.99-5.81,2.94,0,5.63.48,8.07,1.42,2.44.95,4.14,1.9,5.08,2.85l1.5,1.43-4.19,6.52c-.3-.3-.72-.67-1.27-1.12-.55-.45-1.68-1.06-3.4-1.84-1.72-.77-3.48-1.16-5.27-1.16-3.44,0-6.23,1.14-8.38,3.41-2.14,2.27-3.21,5.09-3.21,8.43s1.1,6.18,3.29,8.51c2.19,2.32,5.06,3.49,8.6,3.49,1.9,0,3.78-.4,5.65-1.2,1.87-.8,3.25-1.6,4.15-2.4l1.42-1.27,3.67,6.75c-.15.15-.36.37-.64.68-.28.3-.91.8-1.91,1.5-1,.7-2.05,1.32-3.18,1.87-1.12.55-2.59,1.05-4.41,1.5-1.82.45-3.68.68-5.57.68-6.18,0-11.18-1.91-14.99-5.73-3.81-3.82-5.72-8.58-5.72-14.28Z"/>
      <path class="cls-1" d="M157.16,234.39c0-1.95.4-3.67,1.2-5.17.79-1.5,1.91-2.7,3.33-3.6,1.42-.9,2.89-1.65,4.41-2.25,1.52-.6,3.22-1.04,5.08-1.31,1.87-.27,3.43-.45,4.67-.53,1.25-.08,2.54-.11,3.89-.11h1.27v-.53c0-4.5-2.44-6.75-7.33-6.75-1.6,0-3.27.31-5.01.94-1.75.63-3.09,1.24-4.04,1.84l-1.42.9-3.59-6.82c.45-.35,1.08-.79,1.91-1.31.82-.52,2.53-1.22,5.12-2.1,2.59-.87,5.23-1.31,7.93-1.31,5.03,0,8.94,1.32,11.7,3.97,2.77,2.65,4.15,6.4,4.15,11.24v23.91h-8.75v-3.15l.15-2.7h-.15c.05,0-.05.24-.3.71-.25.48-.67,1.04-1.27,1.69-.6.65-1.32,1.3-2.17,1.95-.85.65-1.97,1.21-3.36,1.69-1.4.48-2.89.71-4.49.71-3.59,0-6.64-1.07-9.16-3.22-2.52-2.15-3.78-5.05-3.78-8.69ZM166.73,233.94c0,1.35.5,2.51,1.5,3.48,1,.98,2.42,1.46,4.26,1.46,2.39,0,4.42-1.06,6.09-3.19,1.67-2.12,2.51-4.41,2.51-6.86v-.9h-1.65c-8.47,0-12.71,2-12.71,6Z"/>
      <path class="cls-1" d="M197.69,226.29c0-6,1.61-10.83,4.82-14.5,3.22-3.67,7.37-5.51,12.45-5.51,1.54,0,2.99.16,4.34.49,1.35.33,2.4.73,3.18,1.2.77.48,1.43.96,1.98,1.46.55.5.92.9,1.12,1.2l.37.52h.15c-.05-.65-.08-1.37-.08-2.17v-16.79h9.5v53.22h-8.97v-3.15l.15-2.47h-.15c-.1.2-.24.44-.41.71s-.6.79-1.27,1.54c-.67.75-1.43,1.41-2.28,1.99s-1.98,1.1-3.4,1.57c-1.42.48-2.95.71-4.6.71-5.14,0-9.23-1.85-12.3-5.55-3.07-3.7-4.6-8.52-4.6-14.47ZM207.26,226.29c0,3.6.87,6.5,2.62,8.7,1.74,2.2,4.04,3.3,6.88,3.3,2.69,0,4.96-1.01,6.8-3.04,1.84-2.02,2.76-5.03,2.76-9.03,0-3.2-.83-5.96-2.5-8.28-1.67-2.32-4-3.48-6.99-3.48-2.74,0-5.02,1.06-6.84,3.19-1.82,2.12-2.73,5.01-2.73,8.66Z"/>
      <path class="cls-1" d="M243.3,226.29c0-5.9,1.81-10.7,5.42-14.43,3.61-3.72,8.26-5.58,13.94-5.58,5.33,0,9.48,1.71,12.45,5.13,2.96,3.43,4.45,7.76,4.45,13.01l-.23,3.67h-26.32c.3,3.2,1.53,5.69,3.7,7.46,2.17,1.77,4.75,2.66,7.74,2.66,1.8,0,3.61-.35,5.46-1.05,1.85-.7,3.24-1.4,4.19-2.1l1.35-1.05,3.67,6.82c-.15.15-.37.35-.67.6-.3.25-.96.69-1.98,1.31-1.02.63-2.08,1.17-3.18,1.65-1.1.48-2.5.91-4.22,1.31-1.72.4-3.48.6-5.27.6-6.13,0-11.08-1.94-14.84-5.81-3.76-3.87-5.64-8.61-5.64-14.21ZM253.32,221.57h16.67c-.05-2.5-.79-4.45-2.2-5.85-1.42-1.4-3.21-2.1-5.35-2.1-2.44,0-4.46.7-6.06,2.1-1.6,1.4-2.62,3.35-3.07,5.85Z"/>
      <path class="cls-1" d="M287.41,245.4v-38.23h9.12v4.42l-.15,2.62h.15c1.05-2.1,2.68-3.95,4.9-5.55,2.22-1.6,4.72-2.4,7.51-2.4,5.83,0,9.54,2.62,11.14,7.87h.15c1.1-2.2,2.83-4.06,5.2-5.59,2.37-1.52,4.97-2.29,7.81-2.29,8.33,0,12.49,4.85,12.49,14.54v24.59h-9.5v-22.79c0-2.5-.36-4.4-1.08-5.7s-2.1-1.95-4.15-1.95c-2.34,0-4.31.81-5.91,2.43-1.59,1.63-2.69,3.71-3.29,6.26-.3,1.2-.45,2.85-.45,4.95v16.79h-9.5v-22.79c0-2.45-.35-4.33-1.05-5.66-.7-1.32-2.07-1.98-4.11-1.98-2.34,0-4.33.81-5.95,2.43-1.62,1.63-2.75,3.74-3.4,6.33-.3,1.15-.45,2.77-.45,4.87v16.79h-9.5Z"/>
    </g>
    <path class="cls-1" d="M373.52,247.79l-1.31,3.38-1.28,3.33-.94,2.35h-8.9l.94-2.36,3.91-9.67-16.1-37.65h10.7l7.99,22.06,1.43,5.15h.14c.4-1.97.83-3.66,1.28-5.01l7.48-22.2h10.39l-15.73,40.63Z"/>
  </g>
  <path class="cls-2" d="M237.18,66.18c15.09-17.14,33.87-25.95,56.76-24.94,17.71.78,32.82,7.84,45.48,20.13-7.82,7.84-15.56,15.61-23.33,23.4-7.88-7.56-17.35-11.21-28.3-10.44-9.77.69-17.96,4.91-24.45,12.25-12.96,14.67-12.49,36.34,1.07,50.07,13.36,13.53,36.47,15.1,51.67.21,7.74,7.77,15.48,15.53,23.38,23.45-.32.27-.78.62-1.19,1.01-9.69,9.15-21.05,15.11-34.09,17.82-5.86,1.22-11.79,1.61-17.75,1.25-14.82-.91-28.12-5.93-39.7-15.29-11.89-9.62-19.79-21.89-23.64-36.75-1.03-3.96-1.7-7.98-1.92-12.06-.13-2.32-.15-4.64-.27-6.96-.34-6.29-2.15-12.14-5.58-17.42-5.83-8.97-14.06-14.49-24.56-16.33-19.08-3.34-37.73,8.63-41.89,27.89-2.7,12.49.57,23.55,9.28,32.89,5.46,5.85,12.23,9.47,20.11,10.74,11.92,1.93,22.4-1.29,31.31-9.5,2.89-2.66,5.22-5.78,7.07-9.25.05-.1.12-.19.27-.41,2.83,12.21,8.3,22.97,16.51,32.51-.43.38-.87.75-1.29,1.14-9.13,8.52-19.75,14.25-31.89,17.12-3.56.84-7.17,1.49-10.83,1.58-3.63.09-7.29.25-10.89-.05-13.75-1.17-26.12-6.02-36.97-14.6-12.16-9.61-20.28-21.94-24.32-36.95-1.1-4.08-1.87-8.24-2.01-12.47-.12-3.66-.26-7.35.05-11,1.13-13.18,5.7-25.1,13.77-35.57,10.56-13.72,24.34-22.37,41.25-26,6.01-1.29,12.11-1.73,18.22-1.34,16.94,1.08,31.64,7.46,44.04,19.11,1.52,1.43,2.9,3.01,4.34,4.51.09.1.2.18.29.26Z"/>
</svg>